<svg width="950" height="333" viewBox="0 0 950 333" fill="none" xmlns="http://www.w3.org/2000/svg">
<path d="M220 291C243.92 274.2 260.17 240.603 252.837 200.567H247.032V176H308.715C316.491 248.759 289.238 286.756 220 291Z" fill="white"/>
<circle cx="275" cy="117" r="40" fill="white"/>
<path d="M350.827 143.728L346.507 144.016L343.915 135.664C357.355 132.4 367.243 129.136 373.578 125.872C379.915 122.608 383.467 120.784 384.235 120.4C386.731 120.4 388.171 120.592 388.555 120.976C389.323 121.744 389.899 127.888 390.283 139.408C405.643 128.272 419.563 122.704 432.043 122.704C448.555 122.704 460.075 128.464 466.603 139.984C482.731 128.464 497.707 122.704 511.531 122.704C539.371 122.704 553.291 137.008 553.291 165.616V229.552C553.291 233.008 554.155 235.408 555.883 236.752C557.611 237.904 561.835 238.768 568.555 239.344L571.147 250.864L542.923 250L511.819 250.864L509.515 239.344C518.731 238.576 524.203 237.808 525.931 237.04C527.851 236.08 528.811 233.584 528.811 229.552V175.408C528.811 163.12 526.411 154.576 521.611 149.776C516.811 144.784 509.323 142.288 499.147 142.288C489.163 142.288 479.659 145.456 470.635 151.792C471.595 156.592 472.075 161.2 472.075 165.616V229.552C472.075 233.008 472.939 235.408 474.667 236.752C476.395 237.904 480.619 238.768 487.339 239.344L489.931 250.864L461.707 250L430.603 250.864L428.299 239.344C437.515 238.576 442.987 237.808 444.715 237.04C446.635 236.08 447.595 233.584 447.595 229.552V175.408C447.595 163.12 445.195 154.48 440.395 149.488C435.787 144.496 428.875 142 419.659 142C410.443 142 400.843 144.688 390.859 150.064V229.552C390.859 233.008 391.723 235.408 393.451 236.752C395.179 237.904 399.403 238.768 406.123 239.344L408.715 250.864L380.491 250L349.387 250.864L347.083 239.344C356.299 238.576 361.771 237.808 363.499 237.04C365.419 236.08 366.379 233.584 366.379 229.552V162.16C366.379 155.248 365.131 150.448 362.635 147.76C360.139 145.072 356.203 143.728 350.827 143.728Z" fill="white"/>
<path d="M350.826 143.728V140.728H350.727L350.627 140.735L350.826 143.728ZM346.507 144.016L343.641 144.905L344.343 147.167L346.706 147.009L346.507 144.016ZM343.914 135.664L343.207 132.749L340.103 133.503L341.049 136.553L343.914 135.664ZM373.578 125.872L372.205 123.205L373.578 125.872ZM384.235 120.4V117.4H383.526L382.893 117.717L384.235 120.4ZM388.555 120.976L386.433 123.097L386.433 123.097L388.555 120.976ZM390.283 139.408L387.284 139.508L387.472 145.151L392.043 141.837L390.283 139.408ZM466.603 139.984L463.992 141.463L465.635 144.362L468.346 142.425L466.603 139.984ZM555.883 236.752L554.041 239.12L554.127 239.187L554.218 239.248L555.883 236.752ZM568.555 239.344L571.481 238.685L570.999 236.543L568.811 236.355L568.555 239.344ZM571.147 250.864L571.055 253.863L574.923 253.981L574.073 250.205L571.147 250.864ZM542.923 250L543.014 247.001L542.927 246.999L542.839 247.001L542.923 250ZM511.819 250.864L508.877 251.452L509.373 253.933L511.902 253.863L511.819 250.864ZM509.515 239.344L509.265 236.354L505.913 236.634L506.573 239.932L509.515 239.344ZM525.931 237.04L527.149 239.781L527.211 239.754L527.272 239.723L525.931 237.04ZM521.611 149.776L519.448 151.855L519.468 151.877L519.489 151.897L521.611 149.776ZM470.635 151.792L468.911 149.337L467.309 150.461L467.693 152.38L470.635 151.792ZM474.667 236.752L472.825 239.12L472.911 239.187L473.002 239.248L474.667 236.752ZM487.339 239.344L490.265 238.685L489.783 236.543L487.595 236.355L487.339 239.344ZM489.931 250.864L489.839 253.863L493.707 253.981L492.857 250.205L489.931 250.864ZM461.707 250L461.798 247.001L461.711 246.999L461.623 247.001L461.707 250ZM430.603 250.864L427.661 251.452L428.157 253.933L430.686 253.863L430.603 250.864ZM428.299 239.344L428.049 236.354L424.697 236.634L425.357 239.932L428.299 239.344ZM444.715 237.04L445.933 239.781L445.995 239.754L446.056 239.723L444.715 237.04ZM440.395 149.488L438.19 151.523L438.211 151.545L438.232 151.567L440.395 149.488ZM390.858 150.064L389.436 147.423L387.858 148.272V150.064H390.858ZM393.451 236.752L391.609 239.12L391.695 239.187L391.786 239.248L393.451 236.752ZM406.122 239.344L409.049 238.685L408.567 236.543L406.379 236.355L406.122 239.344ZM408.715 250.864L408.623 253.863L412.491 253.981L411.641 250.205L408.715 250.864ZM380.491 250L380.582 247.001L380.495 246.999L380.407 247.001L380.491 250ZM349.386 250.864L346.445 251.452L346.941 253.933L349.47 253.863L349.386 250.864ZM347.083 239.344L346.833 236.354L343.481 236.634L344.141 239.932L347.083 239.344ZM363.499 237.04L364.717 239.781L364.779 239.754L364.84 239.723L363.499 237.04ZM350.627 140.735L346.307 141.023L346.706 147.009L351.026 146.721L350.627 140.735ZM349.372 143.127L346.78 134.775L341.049 136.553L343.641 144.905L349.372 143.127ZM344.622 138.579C358.12 135.301 368.29 131.971 374.952 128.539L372.205 123.205C366.195 126.301 356.589 129.499 343.207 132.749L344.622 138.579ZM374.952 128.539C381.301 125.268 384.829 123.457 385.576 123.083L382.893 117.717C382.104 118.111 378.528 119.948 372.205 123.205L374.952 128.539ZM384.235 123.4C385.429 123.4 386.262 123.447 386.79 123.518C386.915 123.534 387.01 123.551 387.077 123.564C387.146 123.578 387.172 123.587 387.165 123.585C387.162 123.584 387.091 123.562 386.98 123.504C386.876 123.45 386.663 123.327 386.433 123.097L390.676 118.855C390.07 118.249 389.359 117.985 388.972 117.863C388.517 117.72 388.036 117.631 387.583 117.57C386.671 117.449 385.536 117.4 384.235 117.4V123.4ZM386.433 123.097C386.012 122.677 385.928 122.29 385.994 122.484C386.022 122.567 386.079 122.768 386.15 123.133C386.29 123.854 386.435 124.941 386.576 126.44C386.855 129.421 387.093 133.766 387.284 139.508L393.281 139.308C393.088 133.53 392.846 129.043 392.549 125.88C392.402 124.307 392.235 122.994 392.039 121.987C391.942 121.488 391.825 120.993 391.673 120.548C391.559 120.214 391.289 119.467 390.676 118.855L386.433 123.097ZM392.043 141.837C407.142 130.89 420.447 125.704 432.042 125.704V119.704C418.678 119.704 404.143 125.654 388.522 136.979L392.043 141.837ZM432.042 125.704C447.786 125.704 458.135 131.126 463.992 141.463L469.213 138.505C462.014 125.802 449.323 119.704 432.042 119.704V125.704ZM468.346 142.425C484.178 131.117 498.55 125.704 511.531 125.704V119.704C496.863 119.704 481.283 125.811 464.859 137.543L468.346 142.425ZM511.531 125.704C524.967 125.704 534.498 129.151 540.701 135.524C546.918 141.913 550.291 151.754 550.291 165.616H556.291C556.291 150.87 552.703 139.255 545 131.34C537.283 123.409 525.934 119.704 511.531 119.704V125.704ZM550.291 165.616V229.552H556.291V165.616H550.291ZM550.291 229.552C550.291 233.394 551.241 236.943 554.041 239.12L557.724 234.384C557.068 233.873 556.291 232.622 556.291 229.552H550.291ZM554.218 239.248C555.596 240.166 557.574 240.759 559.745 241.203C562.016 241.668 564.879 242.04 568.298 242.333L568.811 236.355C565.51 236.072 562.901 235.724 560.948 235.325C558.895 234.905 557.897 234.49 557.547 234.256L554.218 239.248ZM565.628 240.003L568.22 251.523L574.073 250.205L571.481 238.685L565.628 240.003ZM571.238 247.865L543.014 247.001L542.831 252.999L571.055 253.863L571.238 247.865ZM542.839 247.001L511.735 247.865L511.902 253.863L543.006 252.999L542.839 247.001ZM514.76 250.276L512.456 238.756L506.573 239.932L508.877 251.452L514.76 250.276ZM509.764 242.334C514.396 241.948 518.131 241.558 520.947 241.163C523.618 240.788 525.839 240.364 527.149 239.781L524.712 234.299C524.294 234.484 522.915 234.828 520.114 235.221C517.458 235.594 513.849 235.972 509.265 236.354L509.764 242.334ZM527.272 239.723C530.87 237.924 531.81 233.717 531.81 229.552H525.81C525.81 233.451 524.831 234.236 524.589 234.357L527.272 239.723ZM531.81 229.552V175.408H525.81V229.552H531.81ZM531.81 175.408C531.81 162.911 529.405 153.328 523.732 147.655L519.489 151.897C523.416 155.824 525.81 163.329 525.81 175.408H531.81ZM523.773 147.697C518.187 141.888 509.755 139.288 499.146 139.288V145.288C508.89 145.288 515.434 147.68 519.448 151.855L523.773 147.697ZM499.146 139.288C488.481 139.288 478.384 142.685 468.911 149.337L472.358 154.247C480.933 148.227 489.844 145.288 499.146 145.288V139.288ZM467.693 152.38C468.618 157.007 469.075 161.418 469.075 165.616H475.075C475.075 160.982 474.571 156.177 473.576 151.204L467.693 152.38ZM469.075 165.616V229.552H475.075V165.616H469.075ZM469.075 229.552C469.075 233.394 470.025 236.943 472.825 239.12L476.508 234.384C475.852 233.873 475.075 232.622 475.075 229.552H469.075ZM473.002 239.248C474.38 240.166 476.358 240.759 478.529 241.203C480.8 241.668 483.663 242.04 487.082 242.333L487.595 236.355C484.294 236.072 481.685 235.724 479.732 235.325C477.679 234.905 476.681 234.49 476.331 234.256L473.002 239.248ZM484.412 240.003L487.004 251.523L492.857 250.205L490.265 238.685L484.412 240.003ZM490.022 247.865L461.798 247.001L461.615 252.999L489.839 253.863L490.022 247.865ZM461.623 247.001L430.519 247.865L430.686 253.863L461.79 252.999L461.623 247.001ZM433.544 250.276L431.24 238.756L425.357 239.932L427.661 251.452L433.544 250.276ZM428.548 242.334C433.18 241.948 436.915 241.558 439.731 241.163C442.402 240.788 444.623 240.364 445.933 239.781L443.496 234.299C443.078 234.484 441.699 234.828 438.898 235.221C436.242 235.594 432.633 235.972 428.049 236.354L428.548 242.334ZM446.056 239.723C449.654 237.924 450.595 233.717 450.595 229.552H444.595C444.595 233.451 443.615 234.236 443.373 234.357L446.056 239.723ZM450.595 229.552V175.408H444.595V229.552H450.595ZM450.595 175.408C450.595 162.893 448.182 153.258 442.557 147.409L438.232 151.567C442.207 155.702 444.595 163.347 444.595 175.408H450.595ZM442.599 147.453C437.242 141.65 429.401 139 419.659 139V145C428.348 145 434.331 147.342 438.19 151.523L442.599 147.453ZM419.659 139C409.844 139 399.758 141.865 389.436 147.423L392.281 152.705C401.927 147.511 411.041 145 419.659 145V139ZM387.858 150.064V229.552H393.858V150.064H387.858ZM387.858 229.552C387.858 233.394 388.809 236.943 391.609 239.12L395.292 234.384C394.636 233.873 393.858 232.622 393.858 229.552H387.858ZM391.786 239.248C393.164 240.166 395.142 240.759 397.313 241.203C399.584 241.668 402.447 242.04 405.866 242.333L406.379 236.355C403.078 236.072 400.469 235.724 398.516 235.325C396.463 234.905 395.465 234.49 395.115 234.256L391.786 239.248ZM403.196 240.003L405.788 251.523L411.641 250.205L409.049 238.685L403.196 240.003ZM408.806 247.865L380.582 247.001L380.399 252.999L408.623 253.863L408.806 247.865ZM380.407 247.001L349.303 247.865L349.47 253.863L380.574 252.999L380.407 247.001ZM352.328 250.276L350.024 238.756L344.141 239.932L346.445 251.452L352.328 250.276ZM347.332 242.334C351.964 241.948 355.699 241.558 358.515 241.163C361.186 240.788 363.407 240.364 364.717 239.781L362.28 234.299C361.862 234.484 360.483 234.828 357.682 235.221C355.026 235.594 351.417 235.972 346.833 236.354L347.332 242.334ZM364.84 239.723C368.438 237.924 369.379 233.717 369.379 229.552H363.379C363.379 233.451 362.399 234.236 362.157 234.357L364.84 239.723ZM369.379 229.552V162.16H363.379V229.552H369.379ZM369.379 162.16C369.379 155.083 368.14 149.28 364.833 145.719L360.436 149.801C362.121 151.616 363.379 155.413 363.379 162.16H369.379ZM364.833 145.719C361.549 142.182 356.645 140.728 350.826 140.728V146.728C355.76 146.728 358.728 147.962 360.436 149.801L364.833 145.719Z" fill="white"/>
<path d="M190.996 120.088C191.764 121.048 192.148 124.216 192.148 129.592C192.148 134.776 191.764 138.52 190.996 140.824L101.428 191.8V192.952L190.996 244.216C191.956 249.592 192.436 254.104 192.436 257.752C192.436 261.208 191.956 263.704 190.996 265.24L78.964 203.896C78.004 202.936 77.044 200.152 76.084 195.544C75.316 190.936 74.932 187.96 74.932 186.616C74.932 185.08 75.028 184.12 75.22 183.736L190.996 120.088Z" fill="white"/>
<path d="M190.996 120.088L194.9 116.965L192.273 113.68L188.587 115.706L190.996 120.088ZM190.996 140.824L193.469 145.17L195.134 144.222L195.739 142.405L190.996 140.824ZM101.428 191.8L98.9548 187.454L96.428 188.893V191.8H101.428ZM101.428 192.952H96.428V195.851L98.9443 197.291L101.428 192.952ZM190.996 244.216L195.918 243.337L195.507 241.037L193.48 239.876L190.996 244.216ZM190.996 265.24L188.595 269.626L192.734 271.892L195.236 267.89L190.996 265.24ZM78.964 203.896L75.4285 207.432L75.9347 207.938L76.5626 208.282L78.964 203.896ZM76.084 195.544L71.152 196.366L71.1686 196.465L71.1891 196.564L76.084 195.544ZM75.22 183.736L72.8112 179.354L71.4451 180.105L70.7479 181.5L75.22 183.736ZM187.092 123.211C186.66 122.672 186.606 122.288 186.684 122.566C186.736 122.752 186.818 123.136 186.896 123.786C187.053 125.081 187.148 126.989 187.148 129.592H197.148C197.148 126.819 197.051 124.455 196.824 122.582C196.71 121.648 196.552 120.724 196.316 119.878C196.106 119.124 195.716 117.984 194.9 116.965L187.092 123.211ZM187.148 129.592C187.148 134.706 186.748 137.756 186.253 139.243L195.739 142.405C196.78 139.284 197.148 134.846 197.148 129.592H187.148ZM188.523 136.478L98.9548 187.454L103.901 196.146L193.469 145.17L188.523 136.478ZM96.428 191.8V192.952H106.428V191.8H96.428ZM98.9443 197.291L188.512 248.555L193.48 239.876L103.912 188.612L98.9443 197.291ZM186.074 245.095C187.005 250.309 187.436 254.505 187.436 257.752H197.436C197.436 253.703 196.907 248.875 195.918 243.337L186.074 245.095ZM187.436 257.752C187.436 260.986 186.943 262.291 186.756 262.59L195.236 267.89C196.969 265.117 197.436 261.43 197.436 257.752H187.436ZM193.397 260.854L81.3654 199.51L76.5626 208.282L188.595 269.626L193.397 260.854ZM82.4995 200.36C82.7715 200.632 82.8111 200.783 82.6931 200.552C82.594 200.359 82.4417 200.012 82.2509 199.458C81.8678 198.347 81.438 196.728 80.9789 194.524L71.1891 196.564C71.69 198.968 72.2202 201.045 72.7971 202.718C73.3006 204.178 74.0773 206.08 75.4285 207.432L82.4995 200.36ZM81.016 194.722C80.229 190 79.932 187.463 79.932 186.616H69.932C69.932 188.457 70.403 191.872 71.152 196.366L81.016 194.722ZM79.932 186.616C79.932 185.929 79.9544 185.489 79.9792 185.242C79.9914 185.119 79.9979 185.11 79.983 185.18C79.9748 185.218 79.9551 185.304 79.9171 185.423C79.8808 185.537 79.8119 185.733 79.6921 185.972L70.7479 181.5C70.2071 182.581 70.0807 183.728 70.0288 184.246C69.9576 184.959 69.932 185.767 69.932 186.616H79.932ZM77.6288 188.118L193.405 124.47L188.587 115.706L72.8112 179.354L77.6288 188.118Z" fill="white"/>
<path d="M661.077 59.608C664.341 58.456 667.797 57.88 671.445 57.88C675.093 57.88 677.877 58.264 679.797 59.032L593.685 283.384C592.149 285.496 587.637 286.552 580.149 286.552C578.037 286.552 576.309 286.36 574.965 285.976L661.077 59.608ZM826.431 183.736C826.623 184.312 826.719 185.272 826.719 186.616C826.719 187.96 826.335 190.936 825.567 195.544C824.799 199.96 823.839 202.744 822.687 203.896L710.655 265.24C709.695 263.704 709.215 261.208 709.215 257.752C709.215 254.104 709.695 249.592 710.655 244.216L800.223 192.952V191.8L710.655 140.824C709.887 138.52 709.503 134.776 709.503 129.592C709.503 124.216 709.887 121.048 710.655 120.088L826.431 183.736Z" fill="white"/>
<path d="M661.077 59.608L659.413 54.893L657.227 55.6643L656.403 57.8302L661.077 59.608ZM679.797 59.032L684.465 60.8237L686.231 56.2207L681.654 54.3896L679.797 59.032ZM593.685 283.384L597.728 286.325L598.116 285.791L598.353 285.176L593.685 283.384ZM574.965 285.976L570.291 284.198L568.355 289.288L573.591 290.784L574.965 285.976ZM662.741 64.3229C665.442 63.3696 668.333 62.88 671.445 62.88V52.88C667.261 52.88 663.239 53.5424 659.413 54.893L662.741 64.3229ZM671.445 62.88C674.867 62.88 676.899 63.2581 677.94 63.6744L681.654 54.3896C678.854 53.2698 675.318 52.88 671.445 52.88V62.88ZM675.129 57.2403L589.017 281.592L598.353 285.176L684.465 60.8237L675.129 57.2403ZM589.641 280.443C589.95 280.018 589.912 280.446 588.009 280.892C586.283 281.295 583.713 281.552 580.149 281.552V291.552C584.072 291.552 587.502 291.281 590.288 290.628C592.897 290.018 595.883 288.862 597.728 286.325L589.641 280.443ZM580.149 281.552C578.29 281.552 577.07 281.377 576.338 281.168L573.591 290.784C575.547 291.343 577.783 291.552 580.149 291.552V281.552ZM579.638 287.754L665.75 61.3857L656.403 57.8302L570.291 284.198L579.638 287.754ZM826.431 183.736L831.175 182.155L830.556 180.298L828.84 179.354L826.431 183.736ZM825.567 195.544L830.493 196.401L830.496 196.383L830.499 196.366L825.567 195.544ZM822.687 203.896L825.089 208.282L825.717 207.938L826.223 207.432L822.687 203.896ZM710.655 265.24L706.415 267.89L708.917 271.892L713.057 269.626L710.655 265.24ZM710.655 244.216L708.172 239.876L706.144 241.037L705.733 243.337L710.655 244.216ZM800.223 192.952L802.707 197.291L805.223 195.851V192.952H800.223ZM800.223 191.8H805.223V188.893L802.697 187.454L800.223 191.8ZM710.655 140.824L705.912 142.405L706.518 144.222L708.182 145.17L710.655 140.824ZM710.655 120.088L713.064 115.706L709.378 113.68L706.751 116.965L710.655 120.088ZM821.688 185.317C821.647 185.194 821.638 185.133 821.643 185.161C821.647 185.185 821.659 185.256 821.672 185.386C821.699 185.65 821.719 186.051 821.719 186.616H831.719C831.719 185.226 831.643 183.559 831.175 182.155L821.688 185.317ZM821.719 186.616C821.719 187.463 821.422 190 820.635 194.722L830.499 196.366C831.248 191.872 831.719 188.457 831.719 186.616H821.719ZM820.641 194.687C820.282 196.753 819.905 198.268 819.545 199.314C819.143 200.478 818.917 200.595 819.152 200.36L826.223 207.432C827.61 206.045 828.44 204.194 828.998 202.574C829.598 200.836 830.085 198.751 830.493 196.401L820.641 194.687ZM820.286 199.51L708.254 260.854L713.057 269.626L825.089 208.282L820.286 199.51ZM714.895 262.59C714.709 262.291 714.215 260.986 714.215 257.752H704.215C704.215 261.43 704.682 265.117 706.415 267.89L714.895 262.59ZM714.215 257.752C714.215 254.505 714.647 250.309 715.578 245.095L705.733 243.337C704.744 248.875 704.215 253.703 704.215 257.752H714.215ZM713.139 248.555L802.707 197.291L797.74 188.612L708.172 239.876L713.139 248.555ZM805.223 192.952V191.8H795.223V192.952H805.223ZM802.697 187.454L713.129 136.478L708.182 145.17L797.75 196.146L802.697 187.454ZM715.399 139.243C714.903 137.756 714.503 134.706 714.503 129.592H704.503C704.503 134.846 704.871 139.284 705.912 142.405L715.399 139.243ZM714.503 129.592C714.503 126.989 714.598 125.081 714.755 123.786C714.834 123.136 714.915 122.752 714.967 122.566C715.045 122.288 714.991 122.672 714.56 123.211L706.751 116.965C705.936 117.984 705.546 119.124 705.335 119.878C705.099 120.724 704.941 121.648 704.828 122.582C704.601 124.455 704.503 126.819 704.503 129.592H714.503ZM708.247 124.47L824.023 188.118L828.84 179.354L713.064 115.706L708.247 124.47Z" fill="white"/>
</svg>
