<svg width="415" height="415" viewBox="0 0 415 415" fill="none" xmlns="http://www.w3.org/2000/svg">
<circle cx="202.5" cy="212.5" r="187.5" fill="#99424F"/>
<rect x="151" y="223" width="100" height="130" rx="50" fill="#FFDBB4"/>
<path d="M251 292C311.452 293.612 332.725 302.322 347 332.5C304.478 381.813 271.781 394.01 205 401C139.27 397.346 106.701 382.827 57 332.5C81.252 302.106 107.102 292.123 150.5 292C155.895 327.528 167.176 339.449 202 346.5C235.152 339.537 247.419 329.175 251 292Z" fill="url(#paint0_linear)"/>
<ellipse cx="201" cy="271.5" rx="50" ry="20.5" fill="#E5C5A2"/>
<rect x="80" y="138" width="30" height="55" rx="15" fill="#FFDBB4"/>
<rect x="290" y="138" width="30" height="55" rx="15" fill="#FFDBB4"/>
<rect x="100" y="29" width="200" height="250" rx="100" fill="#FFDBB4"/>
<path d="M183 190C192 204 211 204 219.5 190H183Z" fill="#E5C5A2"/>
<path d="M196 253.03C202.422 258.332 206.222 257.774 213.204 253.192L196 253.03Z" fill="#E5C5A2"/>
<path d="M92.5 169.5L105 160L114.5 96.5L132 70H187L240.5 67L269 81L282.5 96.5L289.5 160L301 169.5L321.5 67L282.5 26L240.5 11H172.5L108.5 17.5L120.5 35.5H89.5L105 50L80 55L89.5 75.5L92.5 101.5V169.5Z" fill="black"/>
<path d="M129 133.443C131.5 120.943 160.251 108.422 178.5 133.443C158.508 126.661 147.663 126.606 129 133.443Z" fill="black"/>
<circle cx="157" cy="163" r="25" fill="white"/>
<circle cx="157.5" cy="163.5" r="17.5" fill="#4E2500"/>
<circle cx="157" cy="163" r="10" fill="black"/>
<ellipse cx="142.5" cy="192.5" rx="32.5" ry="17.5" fill="#FFDBB4"/>
<path d="M147.143 166.91C147.143 160.65 146.249 158.303 148.932 154C150.443 156.108 153.285 154.46 153.886 154.075C153.923 154.049 153.961 154.024 154 154C154 154 153.96 154.028 153.886 154.075C151.22 155.968 152.323 164.582 152.702 166.584C152.764 166.691 152.8 166.801 152.807 166.91C152.82 167.109 152.774 166.969 152.702 166.584C152.051 165.46 148.613 164.569 147.143 166.91Z" fill="white"/>
<path d="M225 133.443C227.5 120.943 256.251 108.422 274.5 133.443C254.508 126.661 243.663 126.606 225 133.443Z" fill="black"/>
<circle cx="245" cy="163" r="25" fill="white"/>
<circle cx="245.5" cy="163.5" r="17.5" fill="#4E2500"/>
<circle cx="246" cy="163" r="10" fill="black"/>
<ellipse cx="257.5" cy="194.5" rx="32.5" ry="17.5" fill="#FFDBB4"/>
<path d="M234.143 166.91C234.143 160.65 233.249 158.303 235.932 154C237.443 156.108 240.285 154.46 240.886 154.075C240.923 154.049 240.961 154.024 241 154C241 154 240.96 154.028 240.886 154.075C238.22 155.968 239.323 164.582 239.702 166.584C239.764 166.691 239.8 166.801 239.807 166.91C239.82 167.109 239.774 166.969 239.702 166.584C239.051 165.46 235.613 164.569 234.143 166.91Z" fill="white"/>
<path d="M161 215C161 251 243.5 252.5 243.5 215H161Z" fill="#1A1919"/>
<path d="M170.5 232.5C180 227 187.584 227.979 202 232C216.107 229.055 223.458 228.216 234.5 232.5C221.405 244.729 187.709 246.255 170.5 232.5Z" fill="#FF7878" stroke="#FF7878"/>
<path d="M162 215H242V215C242 220.523 237.523 225 232 225H172C166.477 225 162 220.523 162 215V215Z" fill="white"/>
<defs>
<linearGradient id="paint0_linear" x1="202" y1="292" x2="202" y2="401" gradientUnits="userSpaceOnUse">
<stop offset="0.359275" stop-color="#0400B5"/>
<stop offset="0.359375" stop-color="#0089D7"/>
<stop offset="0.78125" stop-color="#0089D7"/>
<stop offset="0.78135" stop-color="#0400B5"/>
</linearGradient>
</defs>
</svg>
